<svg width="2080" height="624" viewBox="0 0 2080 624" fill="none" xmlns="http://www.w3.org/2000/svg">
<path fill-rule="evenodd" clip-rule="evenodd" d="M575.985 448.168C575.186 448.654 574.387 449.141 573.588 449.628L575.985 448.168ZM650.663 370.843L650.416 371.31L651.668 368.95L651.475 369.314L651.22 369.793C651.034 370.143 650.849 370.493 650.663 370.843ZM628.343 290.822L632.385 292.272C631.038 291.787 629.69 291.304 628.343 290.822Z" fill="#4338CA"></path>
<path fill-rule="evenodd" clip-rule="evenodd" d="M361.335 391.974C361.955 391.19 362.576 390.407 363.198 389.625L361.335 391.974ZM575.985 448.168C575.186 448.654 574.387 449.141 573.588 449.628L575.985 448.168ZM650.663 370.843L650.416 371.31L651.668 368.95L651.475 369.314L651.22 369.793C651.034 370.143 650.849 370.493 650.663 370.843ZM569.817 204.906L570.224 201.575C570.089 202.686 569.954 203.796 569.817 204.906ZM632.385 292.272C631.038 291.787 629.69 291.304 628.343 290.822L632.385 292.272ZM784.143 203.565C784.014 203.184 783.506 202.406 783.506 202.406C783.793 202.675 784.014 203.184 784.143 203.565ZM772.547 195.434L772.646 195.633L772.241 194.805L772.353 195.038L772.396 195.127L772.43 195.198L772.448 195.236L772.483 195.306L772.547 195.434ZM772.241 194.805C772.149 194.615 772.065 194.445 771.97 194.255L772.241 194.805Z" fill="#4338CA"></path>
<path fill-rule="evenodd" clip-rule="evenodd" d="M361.335 391.974C361.955 391.19 362.576 390.407 363.198 389.625L361.335 391.974ZM575.985 448.168C575.186 448.654 574.387 449.141 573.588 449.628L575.985 448.168ZM650.663 370.843L650.416 371.31L651.668 368.95L651.475 369.314L651.22 369.793C651.034 370.143 650.849 370.493 650.663 370.843ZM569.817 204.906L570.224 201.575C570.089 202.686 569.954 203.796 569.817 204.906ZM632.385 292.272C631.038 291.787 629.69 291.304 628.343 290.822L632.385 292.272ZM784.143 203.565C784.014 203.184 783.506 202.406 783.506 202.406C783.793 202.675 784.014 203.184 784.143 203.565ZM772.547 195.434L772.646 195.633L772.241 194.805L772.353 195.038L772.396 195.127L772.43 195.198L772.448 195.236L772.483 195.306L772.547 195.434ZM772.241 194.805C772.149 194.615 772.065 194.445 771.97 194.255L772.241 194.805Z" fill="#4338CA"></path>
<path fill-rule="evenodd" clip-rule="evenodd" d="M361.335 391.974C361.955 391.19 362.576 390.407 363.198 389.625L361.335 391.974ZM575.985 448.168C575.186 448.654 574.387 449.141 573.588 449.628L575.985 448.168ZM650.663 370.843L650.416 371.31L651.668 368.95L651.475 369.314L651.22 369.793C651.034 370.143 650.849 370.493 650.663 370.843ZM569.817 204.906L570.224 201.575C570.089 202.686 569.954 203.796 569.817 204.906ZM632.385 292.272C631.038 291.787 629.69 291.304 628.343 290.822L632.385 292.272ZM784.143 203.565C784.014 203.184 783.506 202.406 783.506 202.406C783.793 202.675 784.014 203.184 784.143 203.565ZM772.547 195.434L772.646 195.633L772.241 194.805L772.353 195.038L772.396 195.127L772.43 195.198L772.448 195.236L772.483 195.306L772.547 195.434ZM772.241 194.805C772.149 194.615 772.065 194.445 771.97 194.255L772.241 194.805Z" fill="#4338CA"></path>
<path fill-rule="evenodd" clip-rule="evenodd" d="M363.198 389.625L361.335 391.974C361.955 391.19 362.576 390.407 363.198 389.625ZM575.985 448.168C575.186 448.654 574.387 449.141 573.588 449.628L575.985 448.168ZM650.416 371.31L650.663 370.843C650.849 370.493 651.034 370.143 651.22 369.793L651.475 369.314L651.668 368.95L650.416 371.31ZM569.817 204.906L570.224 201.575C570.089 202.686 569.954 203.796 569.817 204.906ZM632.385 292.272C631.038 291.787 629.69 291.304 628.343 290.822L632.385 292.272ZM784.143 203.565C784.014 203.184 783.506 202.406 783.506 202.406C783.793 202.675 784.014 203.184 784.143 203.565ZM772.646 195.633L772.547 195.434L772.483 195.306L772.448 195.236L772.43 195.198L772.396 195.127L772.353 195.038L772.241 194.805L771.97 194.255C772.065 194.445 772.149 194.615 772.241 194.805L772.646 195.633Z" fill="#4338CA"></path>
<path fill-rule="evenodd" clip-rule="evenodd" d="M598.779 287.97C596.774 287.148 595.856 289.804 594.89 291.931C594.254 294.177 593.659 296.43 593.072 298.688L592.064 303.803C591.691 306.905 590.221 307.96 587.897 309.911L586.633 311.004C581.146 315.623 575.144 319.557 569.072 323.359L568.024 324.028C558.97 329.78 549.272 334.241 539.583 338.807C537.435 339.82 535.295 340.85 533.155 341.879L533.06 341.925L531.058 342.855C525.982 345.312 521.624 348.463 519.638 353.95C518.298 360.782 519.601 367.783 522.396 374.089L522.99 375.57C527.92 387.123 537.244 393.432 548.44 398.025L551.378 399.449C559.302 402.834 570.831 404.917 579.069 401.721C589.649 397.323 598.629 385.009 603.396 374.887L604.844 372.295C604.844 372.295 606.775 368.447 607.555 366.235L608.062 364.813C609.41 360.957 610.411 357.084 611.283 353.096L611.736 351.382C613.169 345.941 613.893 340.43 614.583 334.857C614.711 333.829 614.846 332.802 614.986 331.775L615.191 330.229L615.382 328.833C615.454 327.693 615.378 327.237 615.452 326.5C616.219 326.451 615.705 326.547 616.487 326.496C620.676 325.842 633.209 325.779 630.311 320.714C629.1 318.598 628.68 318.787 627.275 318.088C626.016 317.461 624.38 317.397 623.772 317.242C623.164 317.086 619.649 316.546 617.558 315.653L616.338 315.138C609.268 312.058 604.52 308.099 601.404 300.957C599.959 297.065 600.619 290.454 600.619 290.454C600.619 290.454 599.897 288.428 598.779 287.97ZM597.01 317.38L595.898 316.116C594.768 316.589 594.768 316.589 593.863 317.419L592.725 318.438L590.002 320.811C585.199 325.162 579.848 328.187 574.211 331.333C570.931 333.157 567.668 335.008 564.41 336.87L562.335 338.057L558.173 340.439L557.671 340.727C556.078 341.639 554.485 342.552 552.89 343.461C551.109 344.475 549.329 345.49 547.551 346.509L545.527 347.67C540.63 350.449 535.895 352.993 532.875 357.912C531.118 362.299 531.724 367.704 533.03 372.154C535.512 378.665 540.109 382.725 546.146 385.988L547.903 386.889L548.01 386.945C552.459 389.233 556.925 391.53 561.904 392.369C568.875 393.107 575.88 389.331 581.198 385.061L582.228 384.161C584.79 381.95 586.453 379.666 587.965 376.646L588.709 375.088L590.574 371.198C591.432 369.385 592.29 367.584 593.239 365.817C594.719 363.143 595.897 360.51 596.889 357.618L597.337 356.299C598.949 352.006 599.993 347.758 600.909 343.276L600.941 343.119C601.344 341.141 601.746 339.175 602.271 337.225C603.139 334.294 603.716 331.411 604.159 328.386L604.328 326.892C604.639 325.492 604.639 325.492 604.396 324.18L603.114 323.226C601.454 322.213 601.454 322.213 599.951 320.687L598.492 319.041L597.01 317.38Z" fill="#4338CA"></path>
<path fill-rule="evenodd" clip-rule="evenodd" d="M644.113 171.569C639.291 174.151 636.729 179.743 634.813 184.646L634.026 186.625C629.695 197.986 628.816 208.845 630.37 220.894L630.595 222.662C632.014 232.046 635.389 241.818 641.625 249.098L642.754 250.436C651.567 260.279 663.889 266.39 677.057 267.283C682.214 267.459 690.977 265.308 690.977 265.308C690.977 265.308 693.489 264.659 695.079 264.176C720.073 256.588 732.643 240.112 745.907 220.742C747.023 219.112 748.167 217.626 749.486 216.149C750.831 214.635 751.853 213.193 752.868 211.45L753.741 209.964C753.81 209.843 753.897 209.734 753.983 209.625C754.156 209.407 754.331 209.186 754.377 208.857C754.512 207.889 753.773 206.904 752.794 206.921C752.47 206.927 752.244 207.073 752.015 207.221C751.899 207.295 751.783 207.37 751.653 207.428C750.868 207.749 749.97 208.174 749.026 208.622C744.986 210.535 740.104 212.847 739.69 209.058C739.489 207.21 739.803 206.285 741.091 204.504C741.685 203.824 742.287 203.152 742.897 202.486L743.854 201.413C745.734 199.348 747.668 197.549 749.894 195.85C749.982 195.782 750.071 195.714 750.16 195.645L750.377 195.479L750.38 195.477C753.289 193.252 756.6 190.719 756.175 186.62C755.93 184.249 755.543 182.292 753.44 181.164C752.396 180.604 751.644 180.412 750.465 180.553C748.229 180.818 745.723 182.351 746.287 184.525C746.337 184.718 746.456 184.861 746.568 184.997C746.722 185.183 746.864 185.355 746.803 185.622C746.729 185.949 746.449 186.065 746.165 186.183C746.022 186.243 745.877 186.302 745.758 186.39C743.573 188.009 741.407 189.653 739.249 191.308C738.048 192.22 736.836 193.118 735.611 193.996C730.058 198.071 727.99 202.169 726.547 208.856C726.216 211.57 726.554 212.871 727.843 215.293C729.318 216.983 730.776 218.169 732.918 218.938C731.467 221.992 730.051 224.911 727.893 227.536L721.368 234.997C715.834 241.079 708.428 245.298 701.056 248.767L699.451 249.546C694.457 251.904 689.417 253.414 683.915 254.014L682.024 254.233C680.281 254.403 680.281 254.403 678.206 254.017L676.039 253.696C674.965 253.42 673.89 253.146 672.814 252.882C659.815 249.285 650.111 238.518 643.335 227.37C637.196 215.451 636.929 199.147 640.957 186.613C641.66 184.653 642.486 182.793 643.376 180.911C645.779 175.471 645.779 175.471 644.852 172.604L644.113 171.569ZM678.44 186.065C677.056 182.916 677.455 180.248 678.659 177.07C680.917 173.307 684.818 171.462 689.116 171.358C692.286 172.081 694.666 173.591 696.78 176.061C698.506 178.806 698.604 181.213 698.006 184.313C697.096 186.827 695.464 188.873 693.181 190.268C690.116 191.799 687.681 192.48 684.295 191.477C681.786 190.368 679.732 188.472 678.44 186.065ZM187.036 275.713C183.065 273.951 179.159 272.091 175.286 270.126C173.733 269.337 172.16 268.503 170.569 267.659L170.567 267.658L170.565 267.657C164.749 264.573 158.689 261.36 152.499 259.786L152.302 259.742C151.354 259.532 150.927 259.434 150.51 259.303C150.187 259.202 149.871 259.081 149.327 258.872C143.611 256.607 135.677 255.807 132.044 262.156L131.543 263.351C131.251 263.918 131.1 264.212 131.015 264.524C130.924 264.861 130.91 265.219 130.883 265.964C133.392 272.392 137.882 278.337 143.12 282.785C144.842 284.198 146.546 285.632 148.244 287.073L149.511 288.15C159.796 296.884 169.615 306.232 178.941 315.98L179.184 316.237C180.574 317.713 181.964 319.188 183.381 320.64L183.737 321.002C187.568 324.91 191.358 328.775 194.601 333.197C198.013 338 201.668 342.447 205.801 346.648C207.824 346.204 209.25 345.724 210.953 344.524C219.326 337.534 229.791 333.885 240.72 333.641L242.015 333.655L244.037 333.668L246.091 333.75C252.774 333.83 259.389 334.163 265.886 335.837C268.336 336.752 270.576 337.44 273.16 337.821C273.427 337.855 273.693 337.889 273.96 337.924C274.783 338.031 275.606 338.141 276.429 338.253C279.547 338.946 281.255 339.007 284.117 337.446L285.165 336.828C288.244 335.164 290.161 332.98 292.348 330.314C293.047 329.461 293.759 328.618 294.497 327.797C297.181 324.842 299.435 321.613 301.707 318.34C302.411 317.322 303.114 316.305 303.826 315.292C306.542 311.444 308.996 307.624 311.201 303.456C312.214 301.508 313.235 299.591 314.369 297.71C315.537 295.792 316.663 293.86 317.752 291.896L318.51 290.519C319.817 288.238 321.024 286.085 321.614 283.508C322.062 280.303 321.984 278.349 320.143 275.518C314.098 273.885 314.098 273.885 307.693 275.388L306.067 275.767C302.085 276.67 298.128 277.643 294.19 278.723L292.592 279.167L290.935 279.627C289.723 279.963 288.51 280.3 287.297 280.636L285.2 281.216C266.079 286.526 246.948 291.058 226.939 289.478L225.183 289.316C216.936 288.74 209.817 286.061 202.538 282.33C200.121 281.045 197.757 279.893 195.17 278.983C192.858 278.182 190.614 277.29 188.373 276.308L187.036 275.713ZM451.425 192.791L450.286 192.276C449.861 192.084 449.415 191.879 448.952 191.663C448.644 191.52 448.328 191.373 448.005 191.222C440.675 187.801 428.333 182.196 422.958 187.029C422.573 187.375 422.493 187.904 422.431 188.316L422.417 188.411C422.404 188.496 422.39 188.574 422.374 188.643C422.278 189.039 422.238 189.448 422.159 190.251C421.716 194.262 421.101 198.146 420.078 202.053L419.541 204.041C417.862 211.082 415.021 216.336 410.997 222.332C402.661 234.657 397.221 243.779 396.926 258.461C396.394 264.988 395.348 268.369 392.802 275.336C391.164 279.82 389.304 284.265 387.616 287.134C387.4 287.501 387.125 287.973 386.803 288.525C384.605 292.29 380.235 299.778 377.73 303.1C372.725 309.134 371.145 315.778 369.746 323.345C368.822 328.439 367.462 333.182 364.227 337.345C362.534 339.952 357.577 346.409 351.289 351.383C343.428 357.601 338.871 361.614 337.211 370.83C337.088 371.519 337.064 372.63 337.242 373.154C337.42 373.678 338.262 374.784 339.84 376.014C343.686 378.316 347.949 379.309 352.367 378.269C361.152 375.191 366.207 367.008 370.501 359.158C371.838 356.642 373.229 354.176 374.685 351.728C377.452 347.077 380.059 342.38 382.479 337.541L383.052 336.391C386.997 328.486 390.857 320.538 394.658 312.564L395.165 311.497C397.97 305.602 400.786 299.683 404.063 294.034C405.164 292.171 406.228 290.295 407.249 288.388L407.392 288.12C409.483 284.215 411.534 280.384 414.225 276.843C416.776 273.582 418.799 270.2 420.769 266.565L421.828 264.589L421.955 264.355L421.956 264.353L421.959 264.348C423.678 261.167 425.397 257.987 427.002 254.746C427.336 254.059 427.668 253.366 428.001 252.672L428.008 252.656C429.997 248.504 432.02 244.278 434.848 240.665L436.06 239.148C437.509 236.469 438.963 234.082 440.869 231.698C442.732 229.395 444.548 227.066 446.326 224.696C449.4 220.591 452.482 216.496 455.747 212.54C456.369 211.786 456.989 211.031 457.606 210.273L458.547 209.118C458.88 208.721 459.246 208.37 459.608 208.021C460.468 207.196 461.31 206.388 461.657 205.02C462.035 203.534 461.797 202.59 461.43 201.13L461.382 200.937L460.91 199.594L460.447 198.236C460.256 197.621 457.728 195.615 456.657 194.944C455.5 194.218 454.177 193.755 451.425 192.791ZM605.537 148.473L603.64 148.367C570.626 146.277 534.139 159.993 507.4 178.979L506.145 179.892C504.689 180.945 503.237 182.002 501.79 183.068L500.242 184.214C490.259 191.569 480.239 199.227 472.534 209.036C471.213 210.808 469.909 212.523 468.436 214.172C461.84 221.305 456.494 229.25 451.433 237.516C450.467 239.098 449.493 240.675 448.502 242.242C446.37 245.607 444.256 248.982 442.174 252.378L441.407 253.634C441.352 253.723 441.297 253.812 441.241 253.901L441.075 254.17L436.018 262.11C434.481 264.604 432.937 267.089 431.319 269.532C428.536 273.7 425.902 277.785 423.951 282.408C422.086 286.936 419.957 291.165 417.521 295.415C415.116 299.574 412.98 303.773 411.05 308.168C409.739 311.164 408.43 314.148 406.969 317.076C405.356 320.282 403.822 323.522 402.291 326.767C400.902 329.725 399.498 332.663 397.954 335.544C397.186 336.97 396.443 338.392 395.733 339.848C394.232 343.018 392.6 346.029 390.756 349.015C390.024 350.171 389.313 351.341 388.629 352.526L384.951 358.691C384.364 359.463 383.835 360.28 382.775 361.919L382.774 361.92L381.514 363.823L380.249 365.712L379.04 367.533C378.347 368.576 377.672 369.632 377.026 370.704L372.802 377.033C369.673 381.286 366.477 385.486 363.198 389.625C362.576 390.407 361.955 391.19 361.335 391.974C356.591 398.115 351.779 403.022 345.368 407.45L344.276 408.193C334.891 414.599 324.693 419.374 313.644 422.134L311.748 422.595C304.698 424.386 297.955 425.462 290.666 425.163L288.678 425.059C279.945 424.649 271.897 423.931 263.728 420.658C263.427 420.535 263.126 420.413 262.825 420.291L262.033 419.969C261.517 419.761 261.001 419.552 260.486 419.344L258.895 418.705C256.584 417.776 254.263 416.904 251.911 416.083C253.926 419.185 256.085 421.926 258.734 424.516C261.059 426.784 263.242 429.114 265.369 431.567C266.49 432.865 267.616 434.158 268.745 435.449L270.106 437.005L270.938 437.957C279.51 447.872 290.27 455.502 301.223 462.627L302.382 463.374C306.793 466.226 311.147 468.869 316.026 470.863C318.101 471.669 320.135 472.485 322.151 473.428C328.102 476.333 333.8 478.594 340.34 479.861C344.029 480.172 346.224 478.809 349.069 476.612C351.874 474.41 354.761 472.743 357.973 471.199L359.863 470.323C365.333 467.772 370.867 465.49 376.543 463.448L377.684 463.039C386.403 459.905 395.19 457.882 404.295 456.232L406.617 455.825L408.83 455.412C409.002 455.381 409.169 455.352 409.33 455.325C411.03 455.03 412.154 454.836 413.449 453.506L414.127 452.408C414.812 451.447 415.47 450.465 416.104 449.47L416.757 447.824C419.149 443.694 426.798 439.33 427.503 439.426C430.957 439.898 428.794 442.169 428.794 442.169C428.794 442.169 425.32 446.788 424.256 449.659C423.117 455.262 423.576 459.668 426.303 464.703C428.745 468.301 431.781 469.437 435.973 470.278L437.855 470.65L439.879 471.081C442.875 471.673 447.192 473.404 446.19 474.856C445.813 475.792 443.429 476.009 441.512 476.184L441.491 476.186C441.196 476.212 440.912 476.238 440.649 476.266L439.084 476.352C437.905 476.418 436.725 476.468 435.545 476.507L435.529 476.507C432.64 476.455 429.917 476.407 427.102 477.125C425.747 478.377 425.118 479.49 424.349 481.158C424.029 481.938 423.866 482.334 423.685 482.721C423.498 483.121 423.291 483.512 422.87 484.307C422.175 485.563 421.505 486.827 420.845 488.102C422.633 488.864 424.002 489.261 425.958 489.303L427.938 489.166L430.044 489.034C432.687 488.855 435.328 488.763 437.977 488.714C440.675 488.666 443.361 488.571 446.054 488.4C447.075 488.33 448.096 488.268 449.118 488.217C450.492 488.272 451.779 488.287 453.147 488.118C455.506 487.722 457.865 487.37 460.241 487.086C460.624 487.043 461.007 487.001 461.389 486.959C461.719 486.922 462.048 486.886 462.378 486.85L463.446 486.734C470.595 485.957 477.738 485.18 484.753 483.543C486.364 483.156 487.976 482.786 489.595 482.432C497.359 480.759 505.119 479.066 512.837 477.187L514.793 476.705C521.789 474.522 525.291 473.429 528.701 472.1C532.119 470.769 535.445 469.2 542.102 466.061C543.831 465.245 545.56 464.428 547.293 463.618C556.345 459.388 565.048 454.817 573.588 449.628C574.387 449.141 575.186 448.654 575.985 448.168C581.542 444.837 586.781 441.364 591.802 437.264C592.997 436.281 594.199 435.311 595.411 434.349L596.307 433.645C601.23 429.776 606.148 425.912 610.721 421.63C611.671 420.736 612.635 419.857 613.608 418.987C616.792 416.147 619.782 413.224 622.634 410.053C622.854 409.807 623.075 409.56 623.295 409.313C623.472 409.114 623.65 408.914 623.827 408.715L623.855 408.683L623.863 408.675L623.864 408.673L623.866 408.672L623.867 408.67C625.553 406.774 627.24 404.876 629.083 403.132C632.658 399.884 635.166 396.168 637.748 392.109L637.843 391.958C638.796 390.436 639.754 388.906 640.74 387.404C644.215 382.157 647.46 376.866 650.416 371.31L650.663 370.843C650.849 370.493 651.034 370.143 651.22 369.793L651.475 369.314L651.668 368.95C653.882 364.936 655.996 360.902 657.902 356.733L658.553 355.292C659.817 352.528 660.913 349.807 661.735 346.879C662.494 344.124 663.401 341.452 664.38 338.767L664.99 337.113L666.204 333.793C667.065 331.45 667.92 329.104 668.767 326.757C669.674 324.213 670.617 321.69 671.624 319.185L672.132 317.933C673.387 314.832 674.724 311.82 676.251 308.84L676.303 308.744L680.782 300.698C670.938 303.631 658.881 307.037 648.609 307.626L646.543 307.725L645.81 307.761L645.371 307.784C643.517 307.879 638.342 307.989 630.239 305.64C622.137 303.29 609.81 295.164 605.932 291.933L604.954 291.092C589.325 277.776 579.403 261.87 573.864 242.255C573.49 240.917 573.114 239.58 572.724 238.247C571.035 232.468 569.946 226.925 569.618 220.905L569.523 218.65C569.325 214.064 569.358 209.476 569.817 204.906C569.954 203.796 570.089 202.686 570.224 201.575L570.251 201.208C570.501 197.909 570.736 194.8 571.9 191.662C572.465 190.256 572.987 188.897 573.388 187.435C574.37 183.614 575.835 180.199 577.6 176.668L578.505 174.911C579.884 172.127 581.04 170.704 584.075 169.615L584.076 169.617C584.473 170.46 584.74 171.027 584.847 171.623C585.069 172.849 584.618 174.196 583.241 178.313C581.247 184.008 579.953 189.072 579.864 195.123C579.855 196.433 579.836 197.736 579.772 199.044C579.408 205.386 579.755 211.349 580.716 217.628C580.94 219.057 581.158 220.485 581.348 221.92L581.512 223.246C581.62 224.098 581.727 224.95 581.834 225.803C582.725 232.963 584.438 239.5 587.556 245.996C588.128 247.166 588.699 248.336 589.259 249.511C593.779 259.051 599.31 266.988 606.416 274.798L607.674 276.167C609.797 278.496 611.85 280.749 614.451 282.554C615.58 283.296 616.014 283.581 616.426 283.895C616.683 284.092 616.932 284.299 617.336 284.637C620.564 287.474 624.417 289.14 628.343 290.822C629.69 291.304 631.038 291.787 632.385 292.272C638.757 295.851 646.396 295.659 653.461 294.639L654.897 294.423C681.623 290.479 700.315 278.661 720.997 261.99L723.839 259.691C729.333 255.28 734.597 250.89 739.315 245.648C740.172 244.676 741.035 243.71 741.91 242.755C742.596 242.011 743.279 241.265 743.959 240.516L744.925 239.445C747.23 236.894 749.497 234.322 751.687 231.672C757.914 224.107 764.592 217.128 772.85 211.766C774.067 210.991 775.283 210.214 776.498 209.435L778.277 208.283C778.432 208.184 778.595 208.08 778.766 207.972C781.012 206.546 784.456 204.36 784.143 203.565C784.014 203.184 783.793 202.675 783.506 202.406C782.131 200.892 780.971 200.509 779.008 200.018L777.765 199.737C776.474 199.414 775.63 198.844 775.63 198.844C775.63 198.844 774.641 198.307 774.221 197.92C773.8 197.534 773.31 196.766 772.662 195.664L772.646 195.633L772.241 194.805C772.149 194.615 772.065 194.445 771.97 194.255C771.829 193.972 771.18 191.565 771.538 190.018C772.726 184.891 773.738 181.595 779.253 178.357C779.546 178.193 779.838 178.035 780.125 177.879C782.362 176.667 784.348 175.59 785.183 172.934C784.591 170.802 784.04 169.907 782.18 168.693C780.101 168.447 779.074 168.863 777.387 170.081C772.904 174.117 769.162 179.914 767.139 185.842L766.305 188.501C765.671 190.199 765.078 191.893 764.511 193.613C763.43 196.981 762.621 199.381 759.722 201.64C759.395 201.159 759.198 200.87 759.034 200.563C758.786 200.102 758.611 199.602 758.173 198.349C758.192 190.7 760.208 180.627 764.723 174.34C765.555 173.272 766.367 172.187 767.123 171.064L768.089 169.536C768.577 168.815 768.804 168.479 768.996 168.124C769.163 167.812 769.303 167.486 769.566 166.874L768.792 165.228C760.552 165.125 752.443 164.491 744.255 163.544C742.887 163.383 741.519 163.226 740.15 163.076C732.409 162.227 724.818 161.025 717.192 159.452C715.353 159.07 713.515 158.705 711.667 158.363C708.168 157.735 704.727 156.985 701.289 156.08C697.917 155.184 694.543 154.319 691.145 153.525L689.164 153.068C684.149 151.892 679.177 150.738 674.025 150.334L672.378 150.237L670.723 150.122C661.543 149.676 654.597 151.49 647.623 157.596C646.314 158.838 645.39 159.579 643.702 160.236C642.217 160.387 642.217 160.387 641.122 159.805L640.13 158.897L639.02 157.948C636.181 155.515 633.266 154.371 629.708 153.429L627.993 153.003C626.168 152.546 624.342 152.103 622.511 151.677L620.425 151.199L619.842 151.062C615.112 149.953 610.397 148.847 605.537 148.473ZM269.445 351.176C266.717 350.922 264.085 350.638 261.446 349.889C248.696 345.7 230.331 342.898 221.092 354.871C219.792 357.536 219.455 359.461 220.018 362.387L220.311 363.652C222.175 371.955 225.948 379.502 231.221 386.163L232.504 387.69C241.222 398.238 254.621 405.181 267.236 409.857L268.975 410.495C275.124 412.844 280.888 413.766 287.473 413.49L288.953 413.418C303.502 413.12 316.909 408.049 329.759 401.616L329.501 401.067C321.759 401.489 313.996 400.916 306.757 398.021C305.742 397.603 304.724 397.191 303.694 396.812C297.731 394.655 292.363 392.318 287.69 387.888C279.674 378.801 274.018 366.055 274.361 353.832L274.438 352.584C272.759 351.915 271.24 351.429 269.445 351.176ZM414.509 466.12L413.822 464.609C393.739 468.689 375.71 473.825 357.867 484.196C351.416 488.01 342.875 493.225 340.864 500.892C340.898 501.66 340.916 502.055 341.065 502.392C341.223 502.747 341.528 503.038 342.154 503.635C346.754 507.228 351.598 508.793 357.44 508.484C363.264 508.073 368.502 508.22 374.074 510.074C374.498 510.229 374.927 510.388 375.36 510.549C380.321 512.389 385.906 514.46 391.118 513.454C394.518 512.177 396.432 510.599 398.018 507.324C398.732 505.719 399.358 504.341 400.458 502.967C402.292 501.017 403.729 499.244 404.925 496.837C406.037 494.519 407.227 492.277 408.5 490.045L408.617 489.843L408.738 489.632L409.029 489.126L409.05 489.09L409.051 489.087C410.227 487.047 411.401 485.008 412.377 482.862C413.698 479.65 415.494 477.061 417.597 474.29L418.502 473.127C417.837 472.431 417.506 472.084 417.232 471.697C416.977 471.337 416.771 470.942 416.392 470.198L416.314 470.044L415.417 468.087L414.509 466.12ZM708.924 331.336C704.825 331.159 700.753 330.91 696.68 330.39C692.044 329.494 688.014 328.719 683.682 331.03C681.72 332.992 680.216 335.898 679.255 338.919L679.125 339.326C678.013 342.831 674.682 353.325 670.579 361.351C668.541 365.338 666.991 368.071 664.864 371.292C663.317 373.552 662.573 375.454 662.041 378.144C663.431 377.732 664.82 377.318 666.209 376.9L667.93 376.382C673.1 374.852 677.672 373.023 682.312 370.256L683.549 369.505C686.651 367.628 689.625 365.674 692.519 363.491C699.433 358.256 706.733 354.302 714.619 350.737L714.803 350.654C716.641 349.827 718.478 348.999 720.31 348.16L721.67 347.536C725.862 345.678 729.284 343.423 732.518 340.153L733.856 338.629C734.278 338.154 734.665 337.711 735.068 337.251C735.299 336.987 735.542 336.709 735.803 336.412C735.942 336.254 736.086 336.091 736.235 335.921C736.592 335.517 736.522 334.665 735.461 334.275C735.035 334.163 734.007 333.949 733.571 333.883C733.256 333.835 732.939 333.804 732.392 333.75L732.386 333.749L731.127 333.632C729.857 333.499 728.588 333.368 727.317 333.248L726.587 333.18C723.978 332.937 721.372 332.695 718.78 332.308C715.488 331.753 712.256 331.481 708.924 331.336Z" fill="#4338CA"></path>
<path d="M1963.82 155.173C1963.82 161.622 1962.55 167.647 1960 173.247C1957.63 178.848 1954.32 183.77 1950.07 188.013C1945.83 192.086 1940.83 195.395 1935.05 197.941C1929.45 200.317 1923.43 201.505 1916.98 201.505C1910.53 201.505 1904.42 200.317 1898.65 197.941C1893.05 195.395 1888.13 192.086 1883.88 188.013C1879.81 183.77 1876.5 178.848 1873.96 173.247C1871.58 167.647 1870.39 161.622 1870.39 155.173C1870.39 148.893 1871.58 142.953 1873.96 137.352C1876.5 131.582 1879.81 126.66 1883.88 122.587C1888.13 118.344 1893.05 115.035 1898.65 112.658C1904.42 110.113 1910.53 108.84 1916.98 108.84C1923.43 108.84 1929.45 110.113 1935.05 112.658C1940.83 115.035 1945.83 118.344 1950.07 122.587C1954.32 126.66 1957.63 131.582 1960 137.352C1962.55 142.953 1963.82 148.893 1963.82 155.173ZM1951.86 501.904H1881.85V229.254H1951.86V501.904Z" fill="#4338CA"></path>
<path d="M1681.75 501.904L1577.89 229.254H1657.06L1716.63 399.311L1775.95 229.254H1855.37L1751.51 501.904H1681.75Z" fill="#4338CA"></path>
<path d="M1511.44 470.082C1505.84 475.174 1499.82 480.011 1493.37 484.593C1487.09 489.006 1480.47 492.909 1473.51 496.304C1466.55 499.528 1459.34 502.074 1451.87 503.941C1444.57 505.978 1437.11 506.996 1429.47 506.996C1412.67 506.996 1396.88 504.026 1382.12 498.086C1367.35 492.146 1354.37 483.745 1343.17 472.883C1332.14 461.851 1323.39 448.528 1316.95 432.914C1310.67 417.131 1307.53 399.48 1307.53 379.963V229.254H1376.77V379.963C1376.77 389.128 1378.13 397.359 1380.84 404.657C1383.73 411.785 1387.55 417.81 1392.3 422.732C1397.05 427.653 1402.57 431.387 1408.85 433.933C1415.3 436.479 1422.17 437.751 1429.47 437.751C1436.6 437.751 1443.3 436.139 1449.58 432.914C1456.03 429.52 1461.63 425.108 1466.38 419.677C1471.13 414.246 1474.87 408.136 1477.58 401.347C1480.3 394.389 1481.66 387.261 1481.66 379.963V229.254H1551.16V501.904H1534.35L1511.44 470.082Z" fill="#4338CA"></path>
<path d="M1257.88 501.904H1187.87V120.804H1257.88V501.904Z" fill="#4338CA"></path>
<path d="M1149.18 363.16C1149.18 384.544 1145.53 404.062 1138.23 421.712C1130.93 439.363 1121.01 454.553 1108.45 467.281C1095.89 479.841 1081.12 489.599 1064.15 496.558C1047.35 503.516 1029.27 506.995 1009.93 506.995C990.748 506.995 972.673 503.431 955.702 496.303C938.9 489.175 924.134 479.246 911.405 466.518C898.846 453.789 888.918 438.684 881.62 421.203C874.322 403.553 870.673 384.205 870.673 363.16V120.804H940.427V248.092C944.161 243.34 948.658 239.097 953.92 235.363C959.351 231.63 965.121 228.575 971.231 226.199C977.51 223.823 983.96 222.041 990.579 220.853C997.198 219.495 1003.65 218.816 1009.93 218.816C1029.27 218.816 1047.35 222.465 1064.15 229.763C1081.12 236.891 1095.89 246.904 1108.45 259.803C1121.01 272.701 1130.93 287.976 1138.23 305.626C1145.53 323.107 1149.18 342.285 1149.18 363.16ZM1079.17 363.16C1079.17 352.638 1077.3 342.879 1073.57 333.884C1070.01 324.719 1065.08 316.827 1058.8 310.208C1052.53 303.59 1045.14 298.413 1036.66 294.679C1028.34 290.946 1019.43 289.079 1009.93 289.079C1000.42 289.079 991.427 291.2 982.941 295.443C974.625 299.516 967.327 305.032 961.048 311.991C954.768 318.779 949.846 326.671 946.282 335.666C942.718 344.491 940.936 353.656 940.936 363.16C940.936 373.683 942.718 383.441 946.282 392.436C949.846 401.431 954.768 409.238 961.048 415.857C967.327 422.476 974.625 427.737 982.941 431.641C991.427 435.375 1000.42 437.242 1009.93 437.242C1019.43 437.242 1028.34 435.375 1036.66 431.641C1045.14 427.737 1052.53 422.476 1058.8 415.857C1065.08 409.238 1070.01 401.431 1073.57 392.436C1077.3 383.441 1079.17 373.683 1079.17 363.16Z" fill="#4338CA"></path>
</svg>